<svg width="23" height="23" viewBox="0 0 23 23" fill="none" xmlns="http://www.w3.org/2000/svg">
<path d="M20.3013 7.63349L15.0475 2.44148L16.7782 0.710811C17.252 0.236937 17.8343 0 18.5249 0C19.2147 0 19.7965 0.236937 20.2704 0.710811L22.0011 2.44148C22.4749 2.91535 22.7222 3.4873 22.7428 4.15732C22.7634 4.82651 22.5368 5.39804 22.0629 5.87192L20.3013 7.63349ZM1.38756 22.5605C1.03731 22.5605 0.743916 22.4418 0.507391 22.2045C0.270042 21.968 0.151367 21.6746 0.151367 21.3243V17.8321C0.151367 17.6673 0.182272 17.5078 0.244082 17.3537C0.305891 17.1987 0.398606 17.0595 0.522225 16.9358L13.255 4.20306L18.5088 9.45687L5.77604 22.1897C5.65242 22.3133 5.51356 22.406 5.35945 22.4678C5.20451 22.5296 5.04463 22.5605 4.8798 22.5605H1.38756Z" fill="#3674B5"/>
</svg>
