<svg width="31" height="30" viewBox="0 0 31 30" fill="none" xmlns="http://www.w3.org/2000/svg">
<rect x="0.5" width="30" height="30" rx="15" fill="#3674B5" fill-opacity="0.2"/>
<path d="M11.647 20.9902L9.7998 21.6821C9.64323 21.7414 9.49723 21.7075 9.36182 21.5806C9.2264 21.4536 9.19043 21.2992 9.25391 21.1172L9.93945 19.2827L18.0137 11.1958L19.7212 12.9033L11.647 20.9902ZM20.5527 12.0718L18.8452 10.3643L19.7339 9.48193C19.9455 9.27458 20.1719 9.16455 20.4131 9.15186C20.6585 9.13916 20.8828 9.23649 21.0859 9.44385L21.4795 9.84375C21.6826 10.0469 21.7799 10.269 21.7715 10.5103C21.7673 10.7472 21.6593 10.9715 21.4478 11.1831L20.5527 12.0718Z" fill="#3674B5"/>
</svg>
