<svg width="30" height="29" viewBox="0 0 30 29" fill="none" xmlns="http://www.w3.org/2000/svg">
<rect width="30" height="29" rx="14.5" fill="#3674B5"/>
<path d="M14.9048 17.6709C14.436 17.5879 14.0454 17.4683 13.7329 17.312C13.4204 17.1509 13.1494 16.9531 12.9199 16.7188C12.3242 16.1279 11.9287 15.4785 11.7334 14.7705C11.5381 14.0576 11.5381 13.3472 11.7334 12.6392C11.9336 11.9312 12.3267 11.2842 12.9126 10.6982L15.4102 8.19336C15.9961 7.60742 16.6431 7.2168 17.3511 7.02148C18.0591 6.82129 18.7671 6.81885 19.4751 7.01416C20.188 7.20947 20.8423 7.60498 21.438 8.20068C22.0288 8.7915 22.4219 9.44336 22.6172 10.1562C22.8125 10.8643 22.8101 11.5723 22.6099 12.2803C22.4146 12.9883 22.0264 13.6353 21.4453 14.2212L19.292 16.3672C19.3311 16.1279 19.3359 15.8789 19.3066 15.6201C19.2822 15.3613 19.2188 15.1147 19.1162 14.8804L20.5518 13.4448C20.9766 13.02 21.2598 12.5513 21.4014 12.0386C21.543 11.5259 21.543 11.0132 21.4014 10.5005C21.2598 9.98291 20.9766 9.51172 20.5518 9.08691C20.1221 8.65723 19.6509 8.37402 19.1382 8.2373C18.6255 8.0957 18.1128 8.0957 17.6001 8.2373C17.0874 8.37891 16.6162 8.66211 16.1865 9.08691L13.7988 11.4746C13.374 11.8994 13.0908 12.3682 12.9492 12.8809C12.8076 13.3936 12.8076 13.9087 12.9492 14.4263C13.0908 14.939 13.3765 15.4102 13.8062 15.8398C14.0454 16.0791 14.3286 16.2695 14.6558 16.4111C14.9878 16.5527 15.3955 16.6431 15.8789 16.6821L14.9048 17.6709ZM15.0879 11.6357C15.5566 11.7188 15.9473 11.8408 16.2598 12.002C16.5723 12.1582 16.8433 12.3535 17.0728 12.5879C17.6685 13.1787 18.064 13.8306 18.2593 14.5435C18.4546 15.2515 18.4521 15.9595 18.252 16.6675C18.0566 17.3755 17.666 18.0225 17.0801 18.6084L14.5752 21.1206C13.9941 21.7017 13.3496 22.0898 12.6416 22.2852C11.9336 22.4854 11.2231 22.4878 10.5103 22.2925C9.80225 22.0972 9.15039 21.7017 8.55469 21.106C7.96387 20.5151 7.5708 19.8657 7.37549 19.1577C7.18018 18.4448 7.18018 17.7344 7.37549 17.0264C7.57568 16.3184 7.96631 15.6714 8.54736 15.0854L10.7007 12.9395C10.6616 13.1787 10.6543 13.4302 10.6787 13.6938C10.708 13.9526 10.7739 14.1968 10.8765 14.4263L9.44092 15.8618C9.01611 16.2866 8.73291 16.7554 8.59131 17.2681C8.44971 17.7808 8.44971 18.2959 8.59131 18.8135C8.73291 19.3262 9.01611 19.7974 9.44092 20.2271C9.86572 20.6519 10.3345 20.9326 10.8472 21.0693C11.3647 21.2109 11.8799 21.2109 12.3926 21.0693C12.9053 20.9277 13.374 20.6445 13.7988 20.2197L16.1938 17.832C16.6187 17.4072 16.8994 16.9385 17.0361 16.4258C17.1777 15.9131 17.1777 15.4004 17.0361 14.8877C16.8945 14.3701 16.6113 13.8965 16.1865 13.4668C15.9473 13.2275 15.6616 13.0371 15.3296 12.8955C15.0024 12.7539 14.5972 12.6636 14.1138 12.6245L15.0879 11.6357Z" fill="white"/>
</svg>
