<svg width="25" height="25" viewBox="0 0 25 25" fill="none" xmlns="http://www.w3.org/2000/svg">
<g clip-path="url(#clip0_541_9955)">
<path d="M18.75 16.75C17.9583 16.75 17.25 17.0625 16.7083 17.5521L9.28125 13.2292C9.33333 12.9896 9.375 12.75 9.375 12.5C9.375 12.25 9.33333 12.0104 9.28125 11.7708L16.625 7.48959C17.1875 8.01043 17.9271 8.33334 18.75 8.33334C20.4792 8.33334 21.875 6.93751 21.875 5.20834C21.875 3.47918 20.4792 2.08334 18.75 2.08334C17.0208 2.08334 15.625 3.47918 15.625 5.20834C15.625 5.45834 15.6667 5.69793 15.7187 5.93751L8.375 10.2188C7.8125 9.69793 7.07292 9.37501 6.25 9.37501C4.52083 9.37501 3.125 10.7708 3.125 12.5C3.125 14.2292 4.52083 15.625 6.25 15.625C7.07292 15.625 7.8125 15.3021 8.375 14.7813L15.7917 19.1146C15.7396 19.3333 15.7083 19.5625 15.7083 19.7917C15.7083 21.4688 17.0729 22.8333 18.75 22.8333C20.4271 22.8333 21.7917 21.4688 21.7917 19.7917C21.7917 18.1146 20.4271 16.75 18.75 16.75Z" fill="#3674B5"/>
</g>
<defs>
<clipPath id="clip0_541_9955">
<rect width="25" height="25" fill="white"/>
</clipPath>
</defs>
</svg>
